HIERARCHY
ROOT Hips
{
  OFFSET 36.1783 96.2746 137.161
  CHANNELS 6 Xposition Yposition Zposition Zrotation Xrotation Yrotation
  JOINT ToSpine
  {
    OFFSET -2.69724 7.43032 -0.144315
    CHANNELS 3 Zrotation Xrotation Yrotation
    JOINT Spine
    {
      OFFSET -0.0310711 10.7595 1.96963
      CHANNELS 3 Zrotation Xrotation Yrotation
      JOINT Spine1
      {
        OFFSET 13.1342 3.43533 0.764692
        CHANNELS 3 Zrotation Xrotation Yrotation
        JOINT Neck
        {
          OFFSET 29.8703 7.82586 -0.130764
          CHANNELS 3 Zrotation Xrotation Yrotation
          JOINT Head
          {
            OFFSET 9.52751 0.295786 -0.907742
            CHANNELS 3 Zrotation Xrotation Yrotation
            End Site
            {
              OFFSET 16.4037 0.713936 2.7358
            }
          }
        }
        JOINT LeftShoulder
        {
          OFFSET 27.5574 4.95586 2.47156
          CHANNELS 3 Zrotation Xrotation Yrotation
          JOINT LeftArm
          {
            OFFSET 1.20734 -0.998971 20.1238
            CHANNELS 3 Zrotation Xrotation Yrotation
            JOINT LeftForeArm
            {
              OFFSET 26.8049 -0.0536703 -0.155908
              CHANNELS 3 Zrotation Xrotation Yrotation
              JOINT LeftHand
              {
                OFFSET 26.6817 0 0.320147
                CHANNELS 3 Zrotation Xrotation Yrotation
                End Site
                {
                  OFFSET 18.6119 0 0.382219
                }
              }
            }
          }
        }
        JOINT RightShoulder
        {
          OFFSET 27.5927 4.71444 -2.65209
          CHANNELS 3 Zrotation Xrotation Yrotation
          JOINT RightArm
          {
            OFFSET 2.83739 -1.17114 -18.7564
            CHANNELS 3 Zrotation Xrotation Yrotation
            JOINT RightForeArm
            {
              OFFSET 28.839 -0.0548439 1.22491
              CHANNELS 3 Zrotation Xrotation Yrotation
              JOINT RightHand
              {
                OFFSET 26.5114 0 -0.101894
                CHANNELS 3 Zrotation Xrotation Yrotation
                End Site
                {
                  OFFSET 18.2168 0 0
                }
              }
            }
          }
        }
      }
    }
  }
  JOINT LeftUpLeg
  {
    OFFSET -4.76168 -1.9167 -10.2353
    CHANNELS 3 Zrotation Xrotation Yrotation
    JOINT LeftLeg
    {
      OFFSET 2.55951 -42.0585 -8.02213
      CHANNELS 3 Zrotation Xrotation Yrotation
      JOINT LeftFoot
      {
        OFFSET 3.16357 -42.5282 -3.95426
        CHANNELS 3 Zrotation Xrotation Yrotation
        JOINT LeftToeBase
        {
          OFFSET 0.346054 -6.02161 12.8035
          CHANNELS 3 Zrotation Xrotation Yrotation
          End Site
          {
            OFFSET 0.134235 -1.35082 5.13018
          }
        }
      }
    }
  }
  JOINT RightUpLeg
  {
    OFFSET -4.94151 -1.41743 10.6446
    CHANNELS 3 Zrotation Xrotation Yrotation
    JOINT RightLeg
    {
      OFFSET -2.56294 -42.0364 -7.94377
      CHANNELS 3 Zrotation Xrotation Yrotation
      JOINT RightFoot
      {
        OFFSET -3.0952 -42.555 -4.02241
        CHANNELS 3 Zrotation Xrotation Yrotation
        JOINT RightToeBase
        {
          OFFSET -0.0828122 -6.13587 12.8035
          CHANNELS 3 Zrotation Xrotation Yrotation
          End Site
          {
            OFFSET -0.131328 -1.35082 5.13018
          }
        }
      }
    }
  }
}
MOTION
Frames:	10
Frame Time:	0.0333333
31.1182 93.0969 116.707 66.8644 -35.4107 -13.8683 -70.1915 0 88.8779 82.2482 69.1868 -1.81242 3.52065 18.3255 2.42918 -126.089 28.7008 156.554 -169.887 72.7354 -156.723 0.0444329 -17.5627 -24.2896 -70.4316 38.2836 -141.446 20.2594 -6.45498 -106.16 -2.26983 -0.0761047 7.01795 -1.25125 6.3509 34.6679 -127.912 -24.5449 62.4501 1.75228 1.51099 128.657 0.0881789 0.000469209 0.586452 -53.6776 7.63236 100.791 -2.52684 41.2688 -4.68584 2.18191 -17.6238 -1.44387 4.34584 -11.6975 14.5392 -28.4487 -12.235 87.6941 1.73578 34.154 4.64332 -5.59107 -8.24536 1.13377 2.65511 -10.1131 -19.6113 
31.3992 93.2499 117.183 66.9311 -35.6035 -13.4615 -70.1915 0 88.8779 79.5651 69.4139 0.97737 4.61337 18.5493 2.80826 -125.719 29.0038 155.878 -171.242 73.1944 -154.344 0.135172 -17.0346 -24.1572 -69.1711 38.4056 -142.335 20.0548 -6.39207 -106.18 -1.62128 -0.0285445 5.47706 -1.16844 6.29313 33.4706 -127.802 -26.3047 62.0372 1.89907 1.6452 128.987 0.125128 0.000510771 1.34262 -54.3884 7.99791 100.445 -2.48797 40.7201 -4.80748 1.6668 -17.2336 -1.43045 4.51054 -11.9752 14.7819 -29.8991 -11.7278 86.4236 1.60478 31.8385 5.50678 -8.12176 -2.1424 1.20524 2.3718 -8.82255 -14.0252 
31.7279 93.1833 117.937 67.307 -35.9669 -12.8813 -70.1915 0 88.8779 79.0525 69.743 1.60812 4.96898 18.8296 3.26241 -124.83 28.7856 154.671 -169.38 73.4599 -155.128 0.103982 -17.3635 -23.8992 -68.1854 39.0462 -142.557 18.2182 -6.08232 -107.047 -1.0585 -0.00520199 4.66807 -1.15732 6.29104 33.2297 -127.031 -26.7665 63.0767 1.3533 1.22281 129.618 0.0921799 0.000473639 1.11333 -55.2922 8.75405 100.255 -2.40776 40.7404 -4.21367 0.748616 -16.864 -1.42716 5.31733 -13.0135 12.6852 -31.2239 -11.0431 85.6136 1.09456 31.759 0.999237 -11.3669 -3.13042 1.55157 0.915733 -2.13959 -4.99441 
32.0116 92.9769 118.916 67.285 -36.0372 -12.9418 -70.1915 0 88.8779 77.315 69.634 3.4942 5.49813 18.92 2.74655 -124.258 28.3324 153.621 -167.538 73.4288 -156.617 0.0206564 -17.9365 -23.8827 -67.9156 39.3979 -141.99 17.2213 -6.00505 -107.838 -0.891316 -0.000947862 4.55646 -1.23814 6.44393 33.9861 -126.06 -26.6213 64.6144 1.57874 1.42102 129.851 0.0965175 0.000478581 0.890316 -55.742 9.20441 100.202 -2.34282 40.9539 -3.50515 0.19692 -17.3719 -1.47624 5.30271 -12.8633 11.0939 -32.6667 -10.8446 84.6179 0.931641 30.5993 0.628358 -11.8127 -6.59201 1.51828 0.800643 -1.12381 -4.51303 
32.3305 92.9885 120.025 67.1026 -35.9512 -13.1395 -70.1915 0 88.8779 75.868 69.3321 4.96475 5.77569 18.6853 2.74041 -124.946 28.3567 154.298 -168.02 73.1646 -157.126 -0.00942626 -17.9657 -24.2403 -66.8954 39.798 -141.262 17.1696 -6.12033 -108.22 -0.780109 0.00297408 4.2789 -1.22528 6.49334 33.5847 -124.829 -28.4983 65.0484 2.84788 2.46913 129.691 0.184775 0.000578029 1.54531 -56.0949 9.29502 99.3892 -2.68566 41.1895 -6.30219 -0.683689 -15.8913 -1.37128 6.38561 -14.94 16.8477 -34.3983 -10.675 83.7542 0.795848 28.672 1.0364 -11.5856 -9.62085 1.42602 0.862981 1.54208 -6.00882 
32.6827 92.8537 121.317 66.9731 -36.0883 -13.184 -70.1915 0 88.8779 73.6923 69.1346 7.27908 6.35142 18.6266 2.92793 -124.84 28.4876 154.873 -170.107 73.1281 -156.522 -0.0758865 -18.0854 -24.8934 -65.8313 40.2334 -140.319 16.2772 -5.91796 -108.619 -0.640641 0.00722573 3.97403 -1.22825 6.4442 33.7379 -123.266 -29.4903 66.2647 3.13213 2.70234 129.643 0.205935 0.000601896 1.59677 -56.6474 10.4195 99.9512 -2.70099 41.406 -6.35471 -1.71892 -16.2176 -1.4143 6.32744 -14.7582 14.9276 -35.2729 -10.0619 83.7704 0.535192 28.5364 -0.37857 -11.9143 -11.6287 1.39044 0.425395 0.633407 -3.01793 
32.8834 92.9816 122.538 66.8453 -36.1558 -12.7214 -70.1915 0 88.8779 72.951 68.6152 8.91688 7.04778 18.3817 2.36434 -123.682 27.7556 154.308 -168.544 72.7928 -158.616 -0.0376372 -17.6775 -25.1869 -64.5638 41.1963 -139.959 17.1179 -6.15362 -108.37 -0.571327 0.00804591 3.58198 -1.33089 6.35804 35.5731 -121.643 -28.9277 68.7761 2.44229 2.05819 128.689 0.14824 0.000536866 1.29615 -56.3977 12.2811 100.428 -2.79047 42.5137 -6.16374 -1.59099 -15.1409 -1.30584 6.43236 -14.7596 12.6924 -35.6475 -9.46013 83.1033 0.796669 29.0309 0.264388 -11.2713 -11.7852 1.37092 0.628506 0.131699 -3.9731 
33.0543 93.1204 123.443 66.525 -36.3948 -12.7282 -70.1915 0 88.8779 73.148 68.4566 9.00704 6.83516 18.2013 2.72045 -121.979 27.3242 154.425 -167.606 72.634 -158.777 -0.106603 -17.7928 -26.0339 -64.4394 41.3289 -138.703 16.8193 -6.11316 -108.582 -0.842204 0.00142495 4.30061 -1.36939 6.38913 36.0652 -120.672 -29.346 69.4172 2.72657 2.19041 127.495 0.161175 0.000551461 1.31728 -55.2202 13.8035 100.643 -3.30823 45.2282 -7.99641 -3.57609 -14.1422 -1.20067 6.57895 -15.1463 15.0632 -35.7877 -8.94838 82.9387 0.890648 29.2037 -0.334104 -9.29319 -12.35 1.31272 0.1712 0.887923 -1.69827 
33.1934 93.1882 124.373 66.8361 -36.1707 -11.8991 -70.1915 0 88.8779 72.3071 68.2297 9.45132 7.48782 17.7719 3.7934 -119.842 26.8227 154.106 -168.26 72.5905 -156.848 -0.175132 -18.1509 -26.1467 -64.42 42.1611 -138.347 16.0618 -5.77422 -108.433 -0.909862 -0.00366266 4.67588 -1.41515 6.4185 36.6558 -119.837 -29.3003 70.1032 2.65586 2.09329 126.945 0.11569 0.000542542 0.647543 -54.1949 16.0205 100.822 -3.96552 47.9953 -10.7103 -4.52394 -12.9296 -1.05229 7.48095 -16.5771 17.9384 -36.4073 -8.05638 82.9027 0.780963 29.6137 -1.03727 -8.57323 -12.3244 1.2996 0.266596 0.518641 -2.07358 
33.3662 93.2177 125.032 67.3218 -35.649 -10.8381 -70.1915 0 88.8779 73.6913 67.9664 8.26966 7.65204 17.4366 3.8893 -118.434 26.0521 152.759 -165.892 72.5506 -159.118 -0.0475853 -17.8559 -24.9238 -63.1188 42.7886 -140.208 16.6839 -5.75109 -107.674 -0.686936 -0.00480161 4.19242 -1.4474 6.24956 37.7614 -119.736 -28.3772 70.3411 2.60644 2.04025 126.744 0.09056 0.000138841 0.222863 -52.9636 17.3845 99.6343 -4.39683 50.2923 -11.6062 -3.38574 -14.0142 -1.18438 7.57018 -16.775 20.5699 -37.2174 -7.51184 82.5883 0.81393 29.8859 -0.31039 -7.12336 -12.8533 1.27449 0.692416 1.65419 -5.07605 
